<?xml version="1.0" encoding="utf-8"?>
<!-- Generator: Adobe Illustrator 24.0.1, SVG Export Plug-In . SVG Version: 6.00 Build 0)  -->
<svg version="1.1" id="Layer_1" xmlns="http://www.w3.org/2000/svg" xmlns:xlink="http://www.w3.org/1999/xlink" x="0px" y="0px"
	 viewBox="0 0 180 180" style="enable-background:new 0 0 180 180;" xml:space="preserve">
<style type="text/css">
	.st0{fill:#FFFFFF;}
</style>
<rect y="0" width="180" height="180"/>
<path class="st0" d="M80.2,131.3c-16.1,0-29.5-2-40.2-5.9l7.7-21c3.4,1.4,7.8,2.6,13.2,3.6s10.4,1.5,15,1.5c5.2,0,8.8-0.2,10.7-0.7
	c1.9-0.4,3.2-1.4,3.9-2.9c1.1-2.5,0.3-4-2.4-4.5l-10.9-1.6c-10.3-1.6-17-4.8-20-9.7c-3-4.9-3.2-11.1-0.4-18.8c2-5.5,5.1-10,9.6-13.4
	c4.4-3.4,9.6-5.8,15.7-7.2c6-1.4,13.2-2.1,21.4-2.1c14.3,0,26.5,1.8,36.6,5.5l-7.6,21c-8-3.2-17-4.8-27.2-4.8c-4.3,0-7.3,0.2-9,0.6
	s-2.8,1.3-3.2,2.6c-0.8,2.2-0.1,3.4,2.2,3.8l10.9,1.6c20.1,3,26.9,12.9,20.3,29.9c-3.2,8.3-8.6,14.1-16.1,17.4
	C102.7,129.7,92.7,131.3,80.2,131.3z"/>
</svg>
